<?xml version="1.0" ?><svg viewBox="0 0 48 48" xmlns="http://www.w3.org/2000/svg" xmlns:xlink="http://www.w3.org/1999/xlink"><defs><style>.cls-1{fill:#fdcf85;}.cls-2{fill:#edbd77;}.cls-3{fill:#99543b;}.cls-4{fill:url(#linear-gradient);}.cls-5{fill:#231f20;opacity:0.2;}.cls-6{fill:url(#linear-gradient-2);}.cls-7{fill:url(#linear-gradient-3);}.cls-8{fill:url(#linear-gradient-4);}.cls-9{fill:url(#linear-gradient-5);}.cls-10{fill:url(#linear-gradient-6);}.cls-11{fill:url(#linear-gradient-7);}</style><linearGradient gradientUnits="userSpaceOnUse" id="linear-gradient" x1="23.98" x2="23.98" y1="26.67" y2="39.94"><stop offset="0" stop-color="#fff"/><stop offset="0.3" stop-color="#fbfbfb"/><stop offset="1" stop-color="#f5f5f5"/></linearGradient><linearGradient gradientUnits="userSpaceOnUse" id="linear-gradient-2" x1="21.95" x2="25.85" y1="37.99" y2="37.99"><stop offset="0" stop-color="#c53535"/><stop offset="1" stop-color="#9c2a2a"/></linearGradient><linearGradient id="linear-gradient-3" x1="22.27" x2="25.41" xlink:href="#linear-gradient-2" y1="34.58" y2="34.58"/><linearGradient id="linear-gradient-4" x1="20.89" x2="20.89" xlink:href="#linear-gradient" y1="28.85" y2="38.37"/><linearGradient gradientTransform="matrix(-1, 0, 0, 1, 413.66, 0)" id="linear-gradient-5" x1="386.4" x2="386.4" xlink:href="#linear-gradient" y1="28.85" y2="38.37"/><linearGradient gradientUnits="userSpaceOnUse" id="linear-gradient-6" x1="35.65" x2="35.65" y1="30.57" y2="41.3"><stop offset="0" stop-color="#72afe0"/><stop offset="1" stop-color="#4991cc"/></linearGradient><linearGradient id="linear-gradient-7" x1="12.27" x2="12.27" xlink:href="#linear-gradient-6" y1="30.97" y2="41.27"/></defs><title/><g id="icons"><g data-name="Layer 3" id="Layer_3"><path class="cls-1" d="M34.81,31.25c-4-.74-6.7-2.68-6.7-4.39s.1-6.59.1-6.59l-4.89-.09h-.05l-4.89.09a61.73,61.73,0,0,1,1,6.72c0,1.71-1.77,3.79-5.59,4.26-3.79.78-5,4.49-5.11,6.81l14.68-.8H39.38C39.23,34.94,37.85,32.83,34.81,31.25Z"/><path class="cls-2" d="M23.42,29.49a7.2,7.2,0,0,0,4.72-2.3,1.84,1.84,0,0,1,0-.33c0-1.7.1-6.59.1-6.59l-4.89-.09h-.05l-4.89.09a61.73,61.73,0,0,1,1,6.72,2.47,2.47,0,0,1-.1.7A7,7,0,0,0,23.42,29.49Z"/><path class="cls-1" d="M32.32,17.34a3.05,3.05,0,0,0-1-2.49c.1-1.78.12-4.09-1-5C29.13,6.06,25.18,6,21.93,6s-5.49,1.44-6.75,5a9.27,9.27,0,0,0,.11,3.75,3,3,0,0,0-1,2.52c0,1.48.69,2.68,1.53,2.68h0c1.2,5.69,5.27,8.15,7.61,8.15s6.34-2.41,7.49-8.17C31.7,19.87,32.32,18.74,32.32,17.34Z"/><path class="cls-3" d="M21.93,6c-3.15,0-5.48,1.44-6.75,5a9.27,9.27,0,0,0,.11,3.75c.46.24.45,1,.61,2.15.18.35.74.14.74.14a16.07,16.07,0,0,1,.27-2.32c-.44-1.54-.31-2,.8-2.45a19.63,19.63,0,0,0,10.75-.5,2,2,0,0,1,.84,2.35,11.61,11.61,0,0,0,.21,3.75c.07.31.39.24.56.14a5.52,5.52,0,0,1,1.27-3.25c.1-1.78.11-4.07-1-5C29.13,6.06,25.18,6,21.93,6Z"/><path class="cls-4" d="M29,40.57c4.95-.24,8.86-.82,10.44-1.56-.34-2.18-1.12-6-2.49-6.94a72.93,72.93,0,0,0-7.11-2.69l-1.2,2.45-3.28,1.45L24,33.82l-2.13-.3s-3.12-4.09-3.62-4.18C17.07,30.51,11.56,32,11.56,32c-1.35,1-2.69,3.08-3,7,1.59.73,5.49,1.31,10.43,1.55Z"/><path class="cls-5" d="M29.3,29.25a8.82,8.82,0,0,1-4.84,5,7.78,7.78,0,0,1,3.41,3.91S30,32.65,30,30A2,2,0,0,0,29.3,29.25Z"/><path class="cls-5" d="M18.86,29.25a8.82,8.82,0,0,0,4.85,5,7.77,7.77,0,0,0-3.42,3.91S18.14,32.65,18.2,30A2,2,0,0,1,18.86,29.25Z"/><path class="cls-6" d="M25.85,40.67,25,35.28l-2.15.11L22,40.67l2,0Z"/><path class="cls-5" d="M22.78,35.65a.89.89,0,0,0,.46.14h1.2a1,1,0,0,0,.59-.22L25,35.28l-2.15.11Z"/><rect class="cls-7" height="1.99" rx="0.96" ry="0.96" width="3.13" x="22.27" y="33.58"/><path class="cls-8" d="M18.8,28.58a8.82,8.82,0,0,0,4.84,5,7.78,7.78,0,0,0-3.41,3.91S18.08,32,18.14,29.28A2,2,0,0,1,18.8,28.58Z"/><path class="cls-9" d="M29.36,28.58a8.82,8.82,0,0,1-4.85,5,7.77,7.77,0,0,1,3.42,3.91S30.07,32,30,29.28A2,2,0,0,0,29.36,28.58Z"/><path class="cls-10" d="M40.19,38.28a.14.14,0,0,0,0-.06c-.77-2.22-2-5.31-3.24-6.15a38.75,38.75,0,0,0-5.83-2.26V40.44C36.48,40.05,40.19,39.23,40.19,38.28Z"/><path class="cls-11" d="M16.72,40.43V30.23a33.49,33.49,0,0,0-5.82,1.84c-1.25.87-2.42,4.13-3.09,6.35C8.15,39.3,11.68,40.06,16.72,40.43Z"/></g></g></svg>